Coordinates
version=1
nRows=14
nColumns=40
inDegrees=yes

Units are S.I. units (second, meters, Newtons, ...)
Angles are in degrees.

endheader
time	pelvis_tilt	pelvis_list	pelvis_rotation	pelvis_tx	pelvis_ty	pelvis_tz	hip_flexion_r	hip_adduction_r	hip_rotation_r	knee_angle_r	knee_angle_r_beta	ankle_angle_r	subtalar_angle_r	mtp_angle_r	hip_flexion_l	hip_adduction_l	hip_rotation_l	knee_angle_l	knee_angle_l_beta	ankle_angle_l	subtalar_angle_l	mtp_angle_l	lumbar_extension	lumbar_bending	lumbar_rotation	arm_flex_r	arm_add_r	arm_rot_r	elbow_flex_r	pro_sup_r	wrist_flex_r	wrist_dev_r	arm_flex_l	arm_add_l	arm_rot_l	elbow_flex_l	pro_sup_l	wrist_flex_l	wrist_dev_l
      5.25000000	     -1.29963554	     25.98053144	     77.99254753	      0.52035101	      1.01688916	     -1.06139333	     -1.93557338	     -4.68591301	     13.56479889	     63.89708698	      1.11521455	     -0.49196604	      0.00000000	      0.00000000	    -23.26371454	      7.39886380	    -10.18807794	      6.91008891	      0.12060380	     10.64509485	      0.00000000	      0.00000000	    -37.65900660	     -6.75387069	      4.97575547	      4.92322315	    -10.80103758	      2.04236718	    143.18151713	     87.68302113	      0.00000000	      0.00000000	      0.26497299	    -10.42532942	      5.22370819	    146.76082919	      1.19107855	      0.00000000	      0.00000000
      5.26000000	     -0.98968630	     25.81987498	     78.24411332	      0.51926537	      1.01822019	     -1.06098869	     -0.92987361	     -3.95526405	     13.07710148	     62.22261534	      1.08598951	      0.50115016	      0.00000000	      0.00000000	    -24.49594613	      7.24646204	     -9.81740558	      5.79439035	      0.10113119	     10.52699435	      0.00000000	      0.00000000	    -37.67566082	     -6.22608564	      4.57112923	      4.75616959	    -10.83648546	      2.09672871	    143.20174586	     87.74918455	      0.00000000	      0.00000000	      0.33600672	    -10.80514950	      5.26446132	    146.86716160	      1.20043510	      0.00000000	      0.00000000
      5.27000000	     -0.76683067	     25.43906003	     78.40356386	      0.51830709	      1.01899239	     -1.06019724	      0.36960367	     -3.36939584	     12.56660359	     60.38998475	      1.05400407	      1.77087718	      0.00000000	      0.00000000	    -25.34290808	      7.14572573	     -9.51783102	      4.90077717	      0.08553470	     10.45996144	      0.00000000	      0.00000000	    -37.48297024	     -5.80356662	      4.26964508	      4.67235288	    -10.89011081	      2.22108396	    143.16411767	     87.76355308	      0.00000000	      0.00000000	      0.42973299	    -11.02852565	      5.28100610	    146.91891393	      1.19352853	      0.00000000	      0.00000000
      5.28000000	     -0.49627331	     25.41664069	     78.79732972	      0.51687484	      1.02020730	     -1.05965725	      0.91740250	     -2.95320579	     11.69261653	     57.95702369	      1.01154089	      3.30439819	      0.00000000	      0.00000000	    -26.65214883	      6.97887708	     -9.12944906	      3.86272765	      0.06741732	     10.33455684	      0.00000000	      0.00000000	    -37.67599244	     -5.23627060	      3.74654330	      4.64916077	    -10.97101845	      2.25772069	    143.18864481	     87.79875251	      0.00000000	      0.00000000	      0.50617131	    -11.26731040	      5.25944493	    147.00492641	      1.20139520	      0.00000000	      0.00000000
      5.29000000	     -0.40234096	     25.11456321	     79.17873788	      0.51560503	      1.02061050	     -1.05894592	      1.76184508	     -2.71515558	     10.84581916	     55.35484739	      0.96612434	      4.53625834	      0.00000000	      0.00000000	    -27.55340001	      6.91818272	     -8.78669966	      2.96057108	      0.05167171	     10.34729306	      0.00000000	      0.00000000	    -37.55399412	     -4.82820519	      3.27437900	      4.60412827	    -11.05352583	      2.29313002	    143.20600756	     87.77329224	      0.00000000	      0.00000000	      0.61461238	    -11.53788099	      5.25117236	    147.03774496	      1.20590675	      0.00000000	      0.00000000
      5.30000000	     -0.35865459	     24.62920045	     79.47139453	      0.51468335	      1.02039179	     -1.05801166	      2.81058024	     -2.51162640	     10.09098277	     52.66935568	      0.91925367	      5.74473164	      0.00000000	      0.00000000	    -28.16245585	      6.88498176	     -8.48188847	      2.23226816	      0.03896043	     10.38543738	      0.00000000	      0.00000000	    -37.25412179	     -4.51755677	      2.90729001	      4.55396516	    -11.13123222	      2.39534108	    143.20532729	     87.76535264	      0.00000000	      0.00000000	      0.76524680	    -11.79455630	      5.22285123	    147.04317625	      1.19415502	      0.00000000	      0.00000000
      5.31000000	     -0.24971614	     24.23300195	     79.93645554	      0.51355633	      1.02024734	     -1.05682167	      3.53310411	     -2.35822374	      8.99003049	     49.51214026	      0.86414987	      6.68134494	      0.00000000	      0.00000000	    -28.75175641	      6.68866859	     -8.27465103	      1.69190476	      0.02952931	     10.53470531	      0.00000000	      0.00000000	    -37.11447687	     -4.06160830	      2.40287771	      4.61736631	    -11.18957911	      2.46809040	    143.17365488	     87.77116598	      0.00000000	      0.00000000	      0.95345107	    -12.04219653	      5.17892913	    147.05669225	      1.21120692	      0.00000000	      0.00000000
      5.32000000	     -0.41833102	     23.65730303	     80.32182249	      0.51268448	      1.01940961	     -1.05566065	      4.45419157	     -2.49789125	      7.99190037	     46.24129052	      0.80706277	      7.57408561	      0.00000000	      0.00000000	    -29.06688259	      6.77748034	     -8.15205293	      1.22388012	      0.02136074	     10.68721240	      0.00000000	      0.00000000	    -36.72470222	     -3.92990295	      1.97035822	      4.57265563	    -11.24495331	      2.55779397	    143.12145779	     87.76431077	      0.00000000	      0.00000000	      1.10968047	    -12.25836882	      5.12403586	    147.02967935	      1.18930265	      0.00000000	      0.00000000
      5.33000000	     -0.71305713	     23.09806678	     80.79282972	      0.51170357	      1.01830156	     -1.05439820	      5.24981222	     -2.84778740	      6.84985864	     42.77647043	      0.74659025	      8.01530997	      0.00000000	      0.00000000	    -29.28542529	      6.96424643	     -8.09184790	      0.95599057	      0.01668518	     10.88791106	      0.00000000	      0.00000000	    -36.35525792	     -3.87756025	      1.44363995	      4.57246924	    -11.28559544	      2.72268747	    143.05895233	     87.78406813	      0.00000000	      0.00000000	      1.27712191	    -12.47330944	      5.06992694	    146.97828145	      1.19524619	      0.00000000	      0.00000000
      5.34000000	     -1.10239435	     22.44461037	     81.14395081	      0.51108485	      1.01664415	     -1.05319998	      6.14785998	     -3.24097857	      5.90448032	     39.29560313	      0.68583766	      8.37605749	      0.00000000	      0.00000000	    -29.38154923	      7.29227352	     -8.14928962	      0.71915896	      0.01255169	     11.15489971	      0.00000000	      0.00000000	    -35.84244218	     -3.99500663	      1.02529639	      4.53200888	    -11.27811127	      2.84486867	    143.00265513	     87.72333614	      0.00000000	      0.00000000	      1.41259916	    -12.67338961	      5.00997676	    146.91399268	      1.19106058	      0.00000000	      0.00000000
      5.35000000	     -1.47015022	     21.83086923	     81.53761019	      0.51046058	      1.01488507	     -1.05183926	      6.87164697	     -3.65291264	      4.74655090	     35.53667992	      0.62023207	      8.18485165	      0.00000000	      0.00000000	    -29.46450335	      7.57085967	     -8.23628567	      0.59815415	      0.01043976	     11.70886602	      0.00000000	      0.00000000	    -35.41201061	     -4.08032383	      0.58983803	      4.55795243	    -11.26837635	      2.88435109	    142.96817230	     87.80129618	      0.00000000	      0.00000000	      1.57492449	    -12.82426992	      4.97136285	    146.87434788	      1.19770321	      0.00000000	      0.00000000
      5.36000000	     -1.84069124	     21.21693496	     81.76426840	      0.51047333	      1.01287910	     -1.05036130	      7.54216817	     -3.95500888	      3.87156906	     31.70889482	      0.55342462	      8.07825015	      0.00000000	      0.00000000	    -29.53504261	      7.90262473	     -8.33080495	      0.50778135	      0.00886246	     12.03509074	      0.00000000	      0.00000000	    -34.97377661	     -4.30791928	      0.30840157	      4.55424988	    -11.22272606	      2.93295856	    142.90997858	     87.78799346	      0.00000000	      0.00000000	      1.74311985	    -12.99938218	      4.90532275	    146.83710729	      1.19678578	      0.00000000	      0.00000000
      5.37000000	     -2.11372997	     20.59428997	     81.81854621	      0.51102009	      1.01061428	     -1.04892456	      8.11791831	     -4.03239934	      3.34993826	     27.76470888	      0.48458559	      7.87043495	      0.00000000	      0.00000000	    -29.59612889	      8.17462458	     -8.60256921	      0.45022061	      0.00785783	     12.51605686	      0.00000000	      0.00000000	    -34.51672234	     -4.54928025	      0.22641891	      4.54963611	    -11.14744728	      2.93148284	    142.87690542	     87.79644052	      0.00000000	      0.00000000	      1.92188186	    -13.17217677	      4.87848719	    146.77274244	      1.21425330	      0.00000000	      0.00000000
      5.38000000	     -2.38013021	     19.96086735	     81.75337794	      0.51181452	      1.00798703	     -1.04756464	      8.71060978	     -4.01895742	      3.16102051	     23.88809416	      0.41692590	      7.44129416	      0.00000000	      0.00000000	    -29.63860304	      8.48394905	     -8.97374116	      0.41288497	      0.00720620	     13.10409292	      0.00000000	      0.00000000	    -34.02350683	     -4.84059194	      0.25199536	      4.50929039	    -11.08423470	      2.99978712	    142.82544576	     87.80637926	      0.00000000	      0.00000000	      2.06197165	    -13.28503695	      4.84972217	    146.71555594	      1.21666321	      0.00000000	      0.00000000
